# xmcd CD database file
#
# Track frame offsets:
#	150
#	18860
#	34725
#	48835
#	62172
#	73105
#	88407
#	103265
#	114912
#	141150
#	165047
#	184560
#	198425
#	210515
#	224710
#	236227
#
# Disc length: 3375 seconds
#
# Revision: 5
# Processed by: cddbd v1.5.1PL2 Copyright (c) Steve Scherf et al.
# Submitted via: CDex 1.51
#
DISCID=e50d2d10
DTITLE=Various Artist - Blues' Greatest [CD1/4)
DYEAR=1997
DGENRE=Blues
TTITLE0=BB King - Guess Who
TTITLE1=Bobby Bland - Do What You Set Out To Do
TTITLE2=Muddy Waters - Rolling Stone
TTITLE3=Howlin' Wolf - Tail Dragger
TTITLE4=T. Bone Walker - Stormy Monday Blues
TTITLE5=Little Milton - Blind Man
TTITLE6=Elmore James - Whose Muddy Shoes
TTITLE7=Bobby Bland - Two Steps From The Blues
TTITLE8=BB King - Let Me Make You Cry A Little Longer
TTITLE9=John Lee Hooker - I Put My Trust In You
TTITLE10=Koko Taylor - Big Boss Man
TTITLE11=Willie Dixon - Walking The Blues
TTITLE12=Little Milton - We're Gonna Make It
TTITLE13=Muddy Waters - Hard Loser
TTITLE14=Bobby Bland and Little Jr. Parker - Mother-In-Law Blues
TTITLE15=BB King - No Money, No Luck
EXTD=YEAR: 1997
EXTT0=
EXTT1=
EXTT2=
EXTT3=
EXTT4=
EXTT5=
EXTT6=
EXTT7=
EXTT8=
EXTT9=
EXTT10=
EXTT11=
EXTT12=
EXTT13=
EXTT14=
EXTT15=
PLAYORDER=
